<mxfile host="app.diagrams.net" agent="Mozilla/5.0 (Windows NT 10.0; Win64; x64) AppleWebKit/537.36 (KHTML, like Gecko) Chrome/139.0.0.0 Safari/537.36 Edg/139.0.0.0" version="28.2.0">
  <diagram name="第 1 页" id="Ut3o5Yl856PeTNwvRfgi">
    <mxGraphModel dx="3742" dy="2084" grid="1" gridSize="10" guides="1" tooltips="1" connect="1" arrows="1" fold="1" page="1" pageScale="1" pageWidth="827" pageHeight="1169" math="0" shadow="0">
      <root>
        <mxCell id="0" />
        <mxCell id="1" parent="0" />
        <mxCell id="GG0uQtJbo4kGQcK2Vj1j-1" value="" style="whiteSpace=wrap;html=1;fillColor=none;dashed=1;strokeWidth=3;strokeColor=light-dark(#ce3b3b, #ededed);" vertex="1" parent="1">
          <mxGeometry x="935" y="865" width="940" height="315" as="geometry" />
        </mxCell>
        <mxCell id="GG0uQtJbo4kGQcK2Vj1j-2" value="" style="whiteSpace=wrap;html=1;fillColor=none;dashed=1;strokeWidth=3;strokeColor=light-dark(#ce3b3b, #ededed);" vertex="1" parent="1">
          <mxGeometry x="775" y="350" width="1260" height="250" as="geometry" />
        </mxCell>
        <mxCell id="GG0uQtJbo4kGQcK2Vj1j-3" value="3" style="rounded=0;whiteSpace=wrap;html=1;fillColor=#fff2cc;strokeColor=#d6b656;fontSize=20;fontStyle=1" vertex="1" parent="1">
          <mxGeometry x="1165" y="420" width="40" height="120" as="geometry" />
        </mxCell>
        <mxCell id="GG0uQtJbo4kGQcK2Vj1j-4" value="4" style="rounded=0;whiteSpace=wrap;html=1;fillColor=#fff2cc;strokeColor=#d6b656;fontSize=20;fontStyle=1" vertex="1" parent="1">
          <mxGeometry x="1205" y="420" width="40" height="120" as="geometry" />
        </mxCell>
        <mxCell id="GG0uQtJbo4kGQcK2Vj1j-5" value="5" style="rounded=0;whiteSpace=wrap;html=1;fillColor=#fff2cc;strokeColor=#d6b656;fontSize=20;fontStyle=1" vertex="1" parent="1">
          <mxGeometry x="1245" y="420" width="40" height="120" as="geometry" />
        </mxCell>
        <mxCell id="GG0uQtJbo4kGQcK2Vj1j-6" value="6" style="rounded=0;whiteSpace=wrap;html=1;fillColor=#fff2cc;strokeColor=#d6b656;fontSize=20;fontStyle=1" vertex="1" parent="1">
          <mxGeometry x="1285" y="420" width="40" height="120" as="geometry" />
        </mxCell>
        <mxCell id="GG0uQtJbo4kGQcK2Vj1j-7" value="7" style="rounded=0;whiteSpace=wrap;html=1;fillColor=#fff2cc;strokeColor=#d6b656;fontSize=20;fontStyle=1" vertex="1" parent="1">
          <mxGeometry x="1325" y="420" width="40" height="120" as="geometry" />
        </mxCell>
        <mxCell id="GG0uQtJbo4kGQcK2Vj1j-8" value="8" style="rounded=0;whiteSpace=wrap;html=1;fillColor=#fff2cc;strokeColor=#d6b656;fontSize=20;fontStyle=1" vertex="1" parent="1">
          <mxGeometry x="1365" y="420" width="40" height="120" as="geometry" />
        </mxCell>
        <mxCell id="GG0uQtJbo4kGQcK2Vj1j-9" value="9" style="rounded=0;whiteSpace=wrap;html=1;fillColor=#fff2cc;strokeColor=#d6b656;fontSize=20;fontStyle=1" vertex="1" parent="1">
          <mxGeometry x="1405" y="420" width="40" height="120" as="geometry" />
        </mxCell>
        <mxCell id="GG0uQtJbo4kGQcK2Vj1j-10" value="10" style="rounded=0;whiteSpace=wrap;html=1;fillColor=#fff2cc;strokeColor=#d6b656;fontSize=20;fontStyle=1" vertex="1" parent="1">
          <mxGeometry x="1445" y="420" width="40" height="120" as="geometry" />
        </mxCell>
        <mxCell id="GG0uQtJbo4kGQcK2Vj1j-11" value="11" style="rounded=0;whiteSpace=wrap;html=1;fillColor=#fff2cc;strokeColor=#d6b656;fontSize=20;fontStyle=1" vertex="1" parent="1">
          <mxGeometry x="1485" y="420" width="40" height="120" as="geometry" />
        </mxCell>
        <mxCell id="GG0uQtJbo4kGQcK2Vj1j-12" value="12" style="rounded=0;whiteSpace=wrap;html=1;fillColor=#fff2cc;strokeColor=#d6b656;fontSize=20;fontStyle=1" vertex="1" parent="1">
          <mxGeometry x="1525" y="420" width="40" height="120" as="geometry" />
        </mxCell>
        <mxCell id="GG0uQtJbo4kGQcK2Vj1j-13" value="13" style="rounded=0;whiteSpace=wrap;html=1;fillColor=#fff2cc;strokeColor=#d6b656;fontSize=20;fontStyle=1" vertex="1" parent="1">
          <mxGeometry x="1565" y="420" width="40" height="120" as="geometry" />
        </mxCell>
        <mxCell id="GG0uQtJbo4kGQcK2Vj1j-14" value="14" style="rounded=0;whiteSpace=wrap;html=1;fillColor=#fff2cc;strokeColor=#d6b656;fontSize=20;fontStyle=1" vertex="1" parent="1">
          <mxGeometry x="1605" y="420" width="40" height="120" as="geometry" />
        </mxCell>
        <mxCell id="GG0uQtJbo4kGQcK2Vj1j-15" value="" style="whiteSpace=wrap;html=1;fillColor=none;dashed=1;strokeWidth=3;strokeColor=light-dark(#ce3b3b, #ededed);" vertex="1" parent="1">
          <mxGeometry x="2225" y="720" width="1150" height="330" as="geometry" />
        </mxCell>
        <mxCell id="GG0uQtJbo4kGQcK2Vj1j-16" value="&lt;font style=&quot;font-size: 22px;&quot;&gt;&lt;b&gt;fused_qkv&lt;/b&gt;&lt;/font&gt;" style="text;html=1;align=center;verticalAlign=middle;resizable=0;points=[];autosize=1;strokeColor=none;fillColor=none;" vertex="1" parent="1">
          <mxGeometry x="795" y="350" width="130" height="40" as="geometry" />
        </mxCell>
        <mxCell id="GG0uQtJbo4kGQcK2Vj1j-17" value="" style="endArrow=none;dashed=1;html=1;dashPattern=1 3;strokeWidth=4;rounded=0;entryX=0.5;entryY=0;entryDx=0;entryDy=0;strokeColor=#FF0000;" edge="1" parent="1" target="GG0uQtJbo4kGQcK2Vj1j-2">
          <mxGeometry width="50" height="50" relative="1" as="geometry">
            <mxPoint x="1405" y="610" as="sourcePoint" />
            <mxPoint x="1615" y="720" as="targetPoint" />
          </mxGeometry>
        </mxCell>
        <mxCell id="GG0uQtJbo4kGQcK2Vj1j-18" value="&lt;font style=&quot;font-size: 22px;&quot;&gt;&lt;b&gt;tp2&lt;/b&gt;&lt;/font&gt;" style="text;html=1;align=center;verticalAlign=middle;resizable=0;points=[];autosize=1;strokeColor=none;fillColor=none;" vertex="1" parent="1">
          <mxGeometry x="945" y="870" width="60" height="40" as="geometry" />
        </mxCell>
        <mxCell id="GG0uQtJbo4kGQcK2Vj1j-19" value="&lt;font style=&quot;font-size: 22px;&quot;&gt;&lt;b&gt;rank0&lt;/b&gt;&lt;/font&gt;" style="text;html=1;align=center;verticalAlign=middle;resizable=0;points=[];autosize=1;strokeColor=none;fillColor=none;" vertex="1" parent="1">
          <mxGeometry x="1125" y="1060" width="80" height="40" as="geometry" />
        </mxCell>
        <mxCell id="GG0uQtJbo4kGQcK2Vj1j-20" value="&lt;font style=&quot;font-size: 22px;&quot;&gt;&lt;b&gt;rank1&lt;/b&gt;&lt;/font&gt;" style="text;html=1;align=center;verticalAlign=middle;resizable=0;points=[];autosize=1;strokeColor=none;fillColor=none;" vertex="1" parent="1">
          <mxGeometry x="1612" y="1060" width="80" height="40" as="geometry" />
        </mxCell>
        <mxCell id="GG0uQtJbo4kGQcK2Vj1j-21" value="&lt;font style=&quot;font-size: 22px;&quot;&gt;&lt;b&gt;tp4&lt;/b&gt;&lt;/font&gt;" style="text;html=1;align=center;verticalAlign=middle;resizable=0;points=[];autosize=1;strokeColor=none;fillColor=none;" vertex="1" parent="1">
          <mxGeometry x="2225" y="730" width="60" height="40" as="geometry" />
        </mxCell>
        <mxCell id="GG0uQtJbo4kGQcK2Vj1j-22" value="&lt;font style=&quot;font-size: 22px;&quot;&gt;&lt;b&gt;rank0&lt;/b&gt;&lt;/font&gt;" style="text;html=1;align=center;verticalAlign=middle;resizable=0;points=[];autosize=1;strokeColor=none;fillColor=none;" vertex="1" parent="1">
          <mxGeometry x="2332" y="920" width="80" height="40" as="geometry" />
        </mxCell>
        <mxCell id="GG0uQtJbo4kGQcK2Vj1j-23" value="&lt;font style=&quot;font-size: 22px;&quot;&gt;&lt;b&gt;rank1&lt;/b&gt;&lt;/font&gt;" style="text;html=1;align=center;verticalAlign=middle;resizable=0;points=[];autosize=1;strokeColor=none;fillColor=none;" vertex="1" parent="1">
          <mxGeometry x="2606" y="920" width="80" height="40" as="geometry" />
        </mxCell>
        <mxCell id="GG0uQtJbo4kGQcK2Vj1j-24" value="&lt;font style=&quot;font-size: 22px;&quot;&gt;&lt;b&gt;rank2&lt;/b&gt;&lt;/font&gt;" style="text;html=1;align=center;verticalAlign=middle;resizable=0;points=[];autosize=1;strokeColor=none;fillColor=none;" vertex="1" parent="1">
          <mxGeometry x="2890" y="920" width="80" height="40" as="geometry" />
        </mxCell>
        <mxCell id="GG0uQtJbo4kGQcK2Vj1j-25" value="&lt;font style=&quot;font-size: 22px;&quot;&gt;&lt;b&gt;rank3&lt;/b&gt;&lt;/font&gt;" style="text;html=1;align=center;verticalAlign=middle;resizable=0;points=[];autosize=1;strokeColor=none;fillColor=none;" vertex="1" parent="1">
          <mxGeometry x="3195" y="920" width="80" height="40" as="geometry" />
        </mxCell>
        <mxCell id="GG0uQtJbo4kGQcK2Vj1j-26" value="" style="whiteSpace=wrap;html=1;fillColor=none;dashed=1;strokeWidth=3;strokeColor=light-dark(#ce3b3b, #ededed);" vertex="1" parent="1">
          <mxGeometry x="2225" y="350" width="1160" height="250" as="geometry" />
        </mxCell>
        <mxCell id="GG0uQtJbo4kGQcK2Vj1j-27" value="&lt;font style=&quot;font-size: 22px;&quot;&gt;&lt;b&gt;fused_qkv&lt;/b&gt;&lt;/font&gt;" style="text;html=1;align=center;verticalAlign=middle;resizable=0;points=[];autosize=1;strokeColor=none;fillColor=none;" vertex="1" parent="1">
          <mxGeometry x="2255" y="350" width="130" height="40" as="geometry" />
        </mxCell>
        <mxCell id="GG0uQtJbo4kGQcK2Vj1j-28" value="" style="endArrow=none;dashed=1;html=1;dashPattern=1 3;strokeWidth=4;rounded=0;entryX=0.5;entryY=0;entryDx=0;entryDy=0;strokeColor=#FF0000;" edge="1" parent="1" target="GG0uQtJbo4kGQcK2Vj1j-26">
          <mxGeometry width="50" height="50" relative="1" as="geometry">
            <mxPoint x="2805" y="610" as="sourcePoint" />
            <mxPoint x="3015" y="720" as="targetPoint" />
          </mxGeometry>
        </mxCell>
        <mxCell id="GG0uQtJbo4kGQcK2Vj1j-29" value="" style="shape=table;startSize=0;container=1;collapsible=0;childLayout=tableLayout;fillColor=#fff2cc;strokeColor=#d6b656;fontSize=20;fontStyle=1" vertex="1" parent="1">
          <mxGeometry x="1035" y="900" width="266" height="160" as="geometry" />
        </mxCell>
        <mxCell id="GG0uQtJbo4kGQcK2Vj1j-30" value="" style="shape=tableRow;horizontal=0;startSize=0;swimlaneHead=0;swimlaneBody=0;strokeColor=inherit;top=0;left=0;bottom=0;right=0;collapsible=0;dropTarget=0;fillColor=none;points=[[0,0.5],[1,0.5]];portConstraint=eastwest;fontSize=20;fontStyle=1" vertex="1" parent="GG0uQtJbo4kGQcK2Vj1j-29">
          <mxGeometry width="266" height="53" as="geometry" />
        </mxCell>
        <mxCell id="GG0uQtJbo4kGQcK2Vj1j-31" value="q1" style="shape=partialRectangle;html=1;whiteSpace=wrap;connectable=0;strokeColor=#9673a6;overflow=hidden;fillColor=#e1d5e7;top=0;left=0;bottom=0;right=0;pointerEvents=1;fontSize=20;fontStyle=1" vertex="1" parent="GG0uQtJbo4kGQcK2Vj1j-30">
          <mxGeometry width="34" height="53" as="geometry">
            <mxRectangle width="34" height="53" as="alternateBounds" />
          </mxGeometry>
        </mxCell>
        <mxCell id="GG0uQtJbo4kGQcK2Vj1j-32" value="q2" style="shape=partialRectangle;html=1;whiteSpace=wrap;connectable=0;overflow=hidden;top=0;left=0;bottom=0;right=0;pointerEvents=1;fillColor=#e1d5e7;strokeColor=#9673a6;fontSize=20;fontStyle=1" vertex="1" parent="GG0uQtJbo4kGQcK2Vj1j-30">
          <mxGeometry x="34" width="33" height="53" as="geometry">
            <mxRectangle width="33" height="53" as="alternateBounds" />
          </mxGeometry>
        </mxCell>
        <mxCell id="GG0uQtJbo4kGQcK2Vj1j-33" value="q3" style="shape=partialRectangle;html=1;whiteSpace=wrap;connectable=0;strokeColor=#9673a6;overflow=hidden;fillColor=#e1d5e7;top=0;left=0;bottom=0;right=0;pointerEvents=1;fontSize=20;fontStyle=1" vertex="1" parent="GG0uQtJbo4kGQcK2Vj1j-30">
          <mxGeometry x="67" width="34" height="53" as="geometry">
            <mxRectangle width="34" height="53" as="alternateBounds" />
          </mxGeometry>
        </mxCell>
        <mxCell id="GG0uQtJbo4kGQcK2Vj1j-34" value="q4" style="shape=partialRectangle;html=1;whiteSpace=wrap;connectable=0;strokeColor=#9673a6;overflow=hidden;fillColor=#e1d5e7;top=0;left=0;bottom=0;right=0;pointerEvents=1;fontSize=20;fontStyle=1" vertex="1" parent="GG0uQtJbo4kGQcK2Vj1j-30">
          <mxGeometry x="101" width="32" height="53" as="geometry">
            <mxRectangle width="32" height="53" as="alternateBounds" />
          </mxGeometry>
        </mxCell>
        <mxCell id="GG0uQtJbo4kGQcK2Vj1j-35" value="k1" style="shape=partialRectangle;html=1;whiteSpace=wrap;connectable=0;strokeColor=#82b366;overflow=hidden;fillColor=#d5e8d4;top=0;left=0;bottom=0;right=0;pointerEvents=1;fontSize=20;fontStyle=1" vertex="1" parent="GG0uQtJbo4kGQcK2Vj1j-30">
          <mxGeometry x="133" width="34" height="53" as="geometry">
            <mxRectangle width="34" height="53" as="alternateBounds" />
          </mxGeometry>
        </mxCell>
        <mxCell id="GG0uQtJbo4kGQcK2Vj1j-36" value="k2" style="shape=partialRectangle;html=1;whiteSpace=wrap;connectable=0;strokeColor=#82b366;overflow=hidden;fillColor=#d5e8d4;top=0;left=0;bottom=0;right=0;pointerEvents=1;fontSize=20;fontStyle=1" vertex="1" parent="GG0uQtJbo4kGQcK2Vj1j-30">
          <mxGeometry x="167" width="33" height="53" as="geometry">
            <mxRectangle width="33" height="53" as="alternateBounds" />
          </mxGeometry>
        </mxCell>
        <mxCell id="GG0uQtJbo4kGQcK2Vj1j-37" value="v1" style="shape=partialRectangle;html=1;whiteSpace=wrap;connectable=0;strokeColor=#6c8ebf;overflow=hidden;fillColor=#dae8fc;top=0;left=0;bottom=0;right=0;pointerEvents=1;fontSize=20;fontStyle=1" vertex="1" parent="GG0uQtJbo4kGQcK2Vj1j-30">
          <mxGeometry x="200" width="33" height="53" as="geometry">
            <mxRectangle width="33" height="53" as="alternateBounds" />
          </mxGeometry>
        </mxCell>
        <mxCell id="GG0uQtJbo4kGQcK2Vj1j-38" value="v2" style="shape=partialRectangle;html=1;whiteSpace=wrap;connectable=0;strokeColor=#6c8ebf;overflow=hidden;fillColor=#dae8fc;top=0;left=0;bottom=0;right=0;pointerEvents=1;fontSize=20;fontStyle=1" vertex="1" parent="GG0uQtJbo4kGQcK2Vj1j-30">
          <mxGeometry x="233" width="33" height="53" as="geometry">
            <mxRectangle width="33" height="53" as="alternateBounds" />
          </mxGeometry>
        </mxCell>
        <mxCell id="GG0uQtJbo4kGQcK2Vj1j-39" value="" style="shape=tableRow;horizontal=0;startSize=0;swimlaneHead=0;swimlaneBody=0;strokeColor=inherit;top=0;left=0;bottom=0;right=0;collapsible=0;dropTarget=0;fillColor=none;points=[[0,0.5],[1,0.5]];portConstraint=eastwest;fontSize=20;fontStyle=1" vertex="1" parent="GG0uQtJbo4kGQcK2Vj1j-29">
          <mxGeometry y="53" width="266" height="54" as="geometry" />
        </mxCell>
        <mxCell id="GG0uQtJbo4kGQcK2Vj1j-40" value="" style="shape=partialRectangle;html=1;whiteSpace=wrap;connectable=0;strokeColor=inherit;overflow=hidden;fillColor=none;top=0;left=0;bottom=0;right=0;pointerEvents=1;fontSize=20;fontStyle=1" vertex="1" parent="GG0uQtJbo4kGQcK2Vj1j-39">
          <mxGeometry width="34" height="54" as="geometry">
            <mxRectangle width="34" height="54" as="alternateBounds" />
          </mxGeometry>
        </mxCell>
        <mxCell id="GG0uQtJbo4kGQcK2Vj1j-41" value="" style="shape=partialRectangle;html=1;whiteSpace=wrap;connectable=0;strokeColor=inherit;overflow=hidden;fillColor=none;top=0;left=0;bottom=0;right=0;pointerEvents=1;fontSize=20;fontStyle=1" vertex="1" parent="GG0uQtJbo4kGQcK2Vj1j-39">
          <mxGeometry x="34" width="33" height="54" as="geometry">
            <mxRectangle width="33" height="54" as="alternateBounds" />
          </mxGeometry>
        </mxCell>
        <mxCell id="GG0uQtJbo4kGQcK2Vj1j-42" value="" style="shape=partialRectangle;html=1;whiteSpace=wrap;connectable=0;strokeColor=inherit;overflow=hidden;fillColor=none;top=0;left=0;bottom=0;right=0;pointerEvents=1;fontSize=20;fontStyle=1" vertex="1" parent="GG0uQtJbo4kGQcK2Vj1j-39">
          <mxGeometry x="67" width="34" height="54" as="geometry">
            <mxRectangle width="34" height="54" as="alternateBounds" />
          </mxGeometry>
        </mxCell>
        <mxCell id="GG0uQtJbo4kGQcK2Vj1j-43" value="" style="shape=partialRectangle;html=1;whiteSpace=wrap;connectable=0;strokeColor=inherit;overflow=hidden;fillColor=none;top=0;left=0;bottom=0;right=0;pointerEvents=1;fontSize=20;fontStyle=1" vertex="1" parent="GG0uQtJbo4kGQcK2Vj1j-39">
          <mxGeometry x="101" width="32" height="54" as="geometry">
            <mxRectangle width="32" height="54" as="alternateBounds" />
          </mxGeometry>
        </mxCell>
        <mxCell id="GG0uQtJbo4kGQcK2Vj1j-44" value="" style="shape=partialRectangle;html=1;whiteSpace=wrap;connectable=0;strokeColor=inherit;overflow=hidden;fillColor=none;top=0;left=0;bottom=0;right=0;pointerEvents=1;fontSize=20;fontStyle=1" vertex="1" parent="GG0uQtJbo4kGQcK2Vj1j-39">
          <mxGeometry x="133" width="34" height="54" as="geometry">
            <mxRectangle width="34" height="54" as="alternateBounds" />
          </mxGeometry>
        </mxCell>
        <mxCell id="GG0uQtJbo4kGQcK2Vj1j-45" value="" style="shape=partialRectangle;html=1;whiteSpace=wrap;connectable=0;strokeColor=inherit;overflow=hidden;fillColor=none;top=0;left=0;bottom=0;right=0;pointerEvents=1;fontSize=20;fontStyle=1" vertex="1" parent="GG0uQtJbo4kGQcK2Vj1j-39">
          <mxGeometry x="167" width="33" height="54" as="geometry">
            <mxRectangle width="33" height="54" as="alternateBounds" />
          </mxGeometry>
        </mxCell>
        <mxCell id="GG0uQtJbo4kGQcK2Vj1j-46" style="shape=partialRectangle;html=1;whiteSpace=wrap;connectable=0;strokeColor=inherit;overflow=hidden;fillColor=none;top=0;left=0;bottom=0;right=0;pointerEvents=1;fontSize=20;fontStyle=1" vertex="1" parent="GG0uQtJbo4kGQcK2Vj1j-39">
          <mxGeometry x="200" width="33" height="54" as="geometry">
            <mxRectangle width="33" height="54" as="alternateBounds" />
          </mxGeometry>
        </mxCell>
        <mxCell id="GG0uQtJbo4kGQcK2Vj1j-47" style="shape=partialRectangle;html=1;whiteSpace=wrap;connectable=0;strokeColor=inherit;overflow=hidden;fillColor=none;top=0;left=0;bottom=0;right=0;pointerEvents=1;fontSize=20;fontStyle=1" vertex="1" parent="GG0uQtJbo4kGQcK2Vj1j-39">
          <mxGeometry x="233" width="33" height="54" as="geometry">
            <mxRectangle width="33" height="54" as="alternateBounds" />
          </mxGeometry>
        </mxCell>
        <mxCell id="GG0uQtJbo4kGQcK2Vj1j-48" value="" style="shape=tableRow;horizontal=0;startSize=0;swimlaneHead=0;swimlaneBody=0;strokeColor=inherit;top=0;left=0;bottom=0;right=0;collapsible=0;dropTarget=0;fillColor=none;points=[[0,0.5],[1,0.5]];portConstraint=eastwest;fontSize=20;fontStyle=1" vertex="1" parent="GG0uQtJbo4kGQcK2Vj1j-29">
          <mxGeometry y="107" width="266" height="53" as="geometry" />
        </mxCell>
        <mxCell id="GG0uQtJbo4kGQcK2Vj1j-49" value="" style="shape=partialRectangle;html=1;whiteSpace=wrap;connectable=0;strokeColor=inherit;overflow=hidden;fillColor=none;top=0;left=0;bottom=0;right=0;pointerEvents=1;fontSize=20;fontStyle=1" vertex="1" parent="GG0uQtJbo4kGQcK2Vj1j-48">
          <mxGeometry width="34" height="53" as="geometry">
            <mxRectangle width="34" height="53" as="alternateBounds" />
          </mxGeometry>
        </mxCell>
        <mxCell id="GG0uQtJbo4kGQcK2Vj1j-50" value="" style="shape=partialRectangle;html=1;whiteSpace=wrap;connectable=0;strokeColor=inherit;overflow=hidden;fillColor=none;top=0;left=0;bottom=0;right=0;pointerEvents=1;fontSize=20;fontStyle=1" vertex="1" parent="GG0uQtJbo4kGQcK2Vj1j-48">
          <mxGeometry x="34" width="33" height="53" as="geometry">
            <mxRectangle width="33" height="53" as="alternateBounds" />
          </mxGeometry>
        </mxCell>
        <mxCell id="GG0uQtJbo4kGQcK2Vj1j-51" value="" style="shape=partialRectangle;html=1;whiteSpace=wrap;connectable=0;strokeColor=inherit;overflow=hidden;fillColor=none;top=0;left=0;bottom=0;right=0;pointerEvents=1;fontSize=20;fontStyle=1" vertex="1" parent="GG0uQtJbo4kGQcK2Vj1j-48">
          <mxGeometry x="67" width="34" height="53" as="geometry">
            <mxRectangle width="34" height="53" as="alternateBounds" />
          </mxGeometry>
        </mxCell>
        <mxCell id="GG0uQtJbo4kGQcK2Vj1j-52" value="" style="shape=partialRectangle;html=1;whiteSpace=wrap;connectable=0;strokeColor=inherit;overflow=hidden;fillColor=none;top=0;left=0;bottom=0;right=0;pointerEvents=1;fontSize=20;fontStyle=1" vertex="1" parent="GG0uQtJbo4kGQcK2Vj1j-48">
          <mxGeometry x="101" width="32" height="53" as="geometry">
            <mxRectangle width="32" height="53" as="alternateBounds" />
          </mxGeometry>
        </mxCell>
        <mxCell id="GG0uQtJbo4kGQcK2Vj1j-53" value="" style="shape=partialRectangle;html=1;whiteSpace=wrap;connectable=0;strokeColor=inherit;overflow=hidden;fillColor=none;top=0;left=0;bottom=0;right=0;pointerEvents=1;fontSize=20;fontStyle=1" vertex="1" parent="GG0uQtJbo4kGQcK2Vj1j-48">
          <mxGeometry x="133" width="34" height="53" as="geometry">
            <mxRectangle width="34" height="53" as="alternateBounds" />
          </mxGeometry>
        </mxCell>
        <mxCell id="GG0uQtJbo4kGQcK2Vj1j-54" value="" style="shape=partialRectangle;html=1;whiteSpace=wrap;connectable=0;strokeColor=inherit;overflow=hidden;fillColor=none;top=0;left=0;bottom=0;right=0;pointerEvents=1;fontSize=20;fontStyle=1" vertex="1" parent="GG0uQtJbo4kGQcK2Vj1j-48">
          <mxGeometry x="167" width="33" height="53" as="geometry">
            <mxRectangle width="33" height="53" as="alternateBounds" />
          </mxGeometry>
        </mxCell>
        <mxCell id="GG0uQtJbo4kGQcK2Vj1j-55" style="shape=partialRectangle;html=1;whiteSpace=wrap;connectable=0;strokeColor=inherit;overflow=hidden;fillColor=none;top=0;left=0;bottom=0;right=0;pointerEvents=1;fontSize=20;fontStyle=1" vertex="1" parent="GG0uQtJbo4kGQcK2Vj1j-48">
          <mxGeometry x="200" width="33" height="53" as="geometry">
            <mxRectangle width="33" height="53" as="alternateBounds" />
          </mxGeometry>
        </mxCell>
        <mxCell id="GG0uQtJbo4kGQcK2Vj1j-56" style="shape=partialRectangle;html=1;whiteSpace=wrap;connectable=0;strokeColor=inherit;overflow=hidden;fillColor=none;top=0;left=0;bottom=0;right=0;pointerEvents=1;fontSize=20;fontStyle=1" vertex="1" parent="GG0uQtJbo4kGQcK2Vj1j-48">
          <mxGeometry x="233" width="33" height="53" as="geometry">
            <mxRectangle width="33" height="53" as="alternateBounds" />
          </mxGeometry>
        </mxCell>
        <mxCell id="GG0uQtJbo4kGQcK2Vj1j-57" value="" style="shape=curlyBracket;whiteSpace=wrap;html=1;rounded=1;labelPosition=left;verticalLabelPosition=middle;align=right;verticalAlign=middle;" vertex="1" parent="1">
          <mxGeometry x="955" y="420" width="20" height="120" as="geometry" />
        </mxCell>
        <mxCell id="GG0uQtJbo4kGQcK2Vj1j-58" value="&lt;font style=&quot;font-size: 22px;&quot;&gt;&lt;b&gt;hidden_state&lt;/b&gt;&lt;/font&gt;" style="text;html=1;align=center;verticalAlign=middle;resizable=0;points=[];autosize=1;strokeColor=none;fillColor=none;" vertex="1" parent="1">
          <mxGeometry x="800" y="455" width="160" height="40" as="geometry" />
        </mxCell>
        <mxCell id="GG0uQtJbo4kGQcK2Vj1j-59" value="" style="shape=curlyBracket;whiteSpace=wrap;html=1;rounded=1;labelPosition=left;verticalLabelPosition=middle;align=right;verticalAlign=middle;rotation=-90;" vertex="1" parent="1">
          <mxGeometry x="1395" y="320" width="20" height="480" as="geometry" />
        </mxCell>
        <mxCell id="GG0uQtJbo4kGQcK2Vj1j-60" value="&lt;font style=&quot;font-size: 22px;&quot;&gt;&lt;b&gt;num_head*head_dim+k_v_nums*head_dim*2&lt;/b&gt;&lt;/font&gt;" style="text;html=1;align=center;verticalAlign=middle;resizable=0;points=[];autosize=1;strokeColor=none;fillColor=none;" vertex="1" parent="1">
          <mxGeometry x="1140" y="560" width="500" height="40" as="geometry" />
        </mxCell>
        <mxCell id="GG0uQtJbo4kGQcK2Vj1j-61" value="&lt;font style=&quot;font-size: 22px;&quot;&gt;&lt;b&gt;head_dim=1 ; num_heads=8 ;&amp;nbsp;&lt;/b&gt;&lt;b&gt;num_kv_heads&lt;/b&gt;&lt;b&gt;=4;k_v_groups=2(即每2个q匹配1对kv)&lt;/b&gt;&lt;/font&gt;" style="text;html=1;align=center;verticalAlign=middle;resizable=0;points=[];autosize=1;strokeColor=none;fillColor=none;" vertex="1" parent="1">
          <mxGeometry x="967" y="660" width="890" height="40" as="geometry" />
        </mxCell>
        <mxCell id="GG0uQtJbo4kGQcK2Vj1j-62" value="" style="group;fontSize=20;fontStyle=1" vertex="1" connectable="0" parent="1">
          <mxGeometry x="1485" y="900" width="243" height="160" as="geometry" />
        </mxCell>
        <mxCell id="GG0uQtJbo4kGQcK2Vj1j-63" value="9" style="rounded=0;whiteSpace=wrap;html=1;fillColor=#fff2cc;strokeColor=#d6b656;fontSize=20;fontStyle=1" vertex="1" parent="GG0uQtJbo4kGQcK2Vj1j-62">
          <mxGeometry x="12.999999999999986" width="43" height="160" as="geometry" />
        </mxCell>
        <mxCell id="GG0uQtJbo4kGQcK2Vj1j-64" value="10" style="rounded=0;whiteSpace=wrap;html=1;fillColor=#fff2cc;strokeColor=#d6b656;fontSize=20;fontStyle=1" vertex="1" parent="GG0uQtJbo4kGQcK2Vj1j-62">
          <mxGeometry x="55.999999999999986" width="39.99999999999999" height="160" as="geometry" />
        </mxCell>
        <mxCell id="GG0uQtJbo4kGQcK2Vj1j-65" value="11" style="rounded=0;whiteSpace=wrap;html=1;fillColor=#fff2cc;strokeColor=#d6b656;fontSize=20;fontStyle=1" vertex="1" parent="GG0uQtJbo4kGQcK2Vj1j-62">
          <mxGeometry x="96" width="39.99999999999999" height="160" as="geometry" />
        </mxCell>
        <mxCell id="GG0uQtJbo4kGQcK2Vj1j-66" value="12" style="rounded=0;whiteSpace=wrap;html=1;fillColor=#fff2cc;strokeColor=#d6b656;fontSize=20;fontStyle=1" vertex="1" parent="GG0uQtJbo4kGQcK2Vj1j-62">
          <mxGeometry x="136" width="39.99999999999999" height="160" as="geometry" />
        </mxCell>
        <mxCell id="GG0uQtJbo4kGQcK2Vj1j-67" value="" style="shape=singleArrow;direction=south;whiteSpace=wrap;html=1;fillColor=#e1d5e7;strokeColor=#9673a6;" vertex="1" parent="1">
          <mxGeometry x="1365" y="710" width="60" height="125" as="geometry" />
        </mxCell>
        <mxCell id="GG0uQtJbo4kGQcK2Vj1j-68" value="&lt;font style=&quot;font-size: 22px;&quot;&gt;&lt;b&gt;先切分，后定义q_state、k_state、v_state&lt;/b&gt;&lt;/font&gt;" style="text;html=1;align=center;verticalAlign=middle;resizable=0;points=[];autosize=1;strokeColor=none;fillColor=none;" vertex="1" parent="1">
          <mxGeometry x="1415" y="745" width="450" height="40" as="geometry" />
        </mxCell>
        <mxCell id="GG0uQtJbo4kGQcK2Vj1j-69" value="&lt;font style=&quot;font-size: 22px;&quot;&gt;&lt;b&gt;num_head=4 ;&amp;nbsp;&lt;/b&gt;&lt;b&gt;num_kv_heads&lt;/b&gt;&lt;b&gt;=2&lt;/b&gt;&lt;/font&gt;" style="text;html=1;align=center;verticalAlign=middle;resizable=0;points=[];autosize=1;strokeColor=none;fillColor=none;" vertex="1" parent="1">
          <mxGeometry x="1005" y="1120" width="360" height="40" as="geometry" />
        </mxCell>
        <mxCell id="GG0uQtJbo4kGQcK2Vj1j-70" value="&lt;font style=&quot;font-size: 22px;&quot;&gt;&lt;b&gt;num_head=4 ;&amp;nbsp;&lt;/b&gt;&lt;b&gt;num_kv_heads&lt;/b&gt;&lt;b&gt;=2&lt;/b&gt;&lt;/font&gt;" style="text;html=1;align=center;verticalAlign=middle;resizable=0;points=[];autosize=1;strokeColor=none;fillColor=none;" vertex="1" parent="1">
          <mxGeometry x="1472" y="1120" width="360" height="40" as="geometry" />
        </mxCell>
        <mxCell id="GG0uQtJbo4kGQcK2Vj1j-186" style="edgeStyle=orthogonalEdgeStyle;rounded=0;orthogonalLoop=1;jettySize=auto;html=1;exitX=0.5;exitY=1;exitDx=0;exitDy=0;entryX=0;entryY=0.5;entryDx=0;entryDy=0;" edge="1" parent="1" source="GG0uQtJbo4kGQcK2Vj1j-71" target="GG0uQtJbo4kGQcK2Vj1j-30">
          <mxGeometry relative="1" as="geometry" />
        </mxCell>
        <mxCell id="GG0uQtJbo4kGQcK2Vj1j-71" value="" style="shape=table;startSize=0;container=1;collapsible=0;childLayout=tableLayout;fontSize=20;fontStyle=1" vertex="1" parent="1">
          <mxGeometry x="655" y="945" width="56" height="270" as="geometry" />
        </mxCell>
        <mxCell id="GG0uQtJbo4kGQcK2Vj1j-72" value="" style="shape=tableRow;horizontal=0;startSize=0;swimlaneHead=0;swimlaneBody=0;strokeColor=#9673a6;top=0;left=0;bottom=0;right=0;collapsible=0;dropTarget=0;fillColor=#e1d5e7;points=[[0,0.5],[1,0.5]];portConstraint=eastwest;fontSize=20;fontStyle=1" vertex="1" parent="GG0uQtJbo4kGQcK2Vj1j-71">
          <mxGeometry width="56" height="35" as="geometry" />
        </mxCell>
        <mxCell id="GG0uQtJbo4kGQcK2Vj1j-73" value="q1" style="shape=partialRectangle;html=1;whiteSpace=wrap;connectable=0;strokeColor=inherit;overflow=hidden;fillColor=none;top=0;left=0;bottom=0;right=0;pointerEvents=1;fontSize=20;fontStyle=1" vertex="1" parent="GG0uQtJbo4kGQcK2Vj1j-72">
          <mxGeometry width="56" height="35" as="geometry">
            <mxRectangle width="56" height="35" as="alternateBounds" />
          </mxGeometry>
        </mxCell>
        <mxCell id="GG0uQtJbo4kGQcK2Vj1j-77" value="" style="shape=tableRow;horizontal=0;startSize=0;swimlaneHead=0;swimlaneBody=0;strokeColor=inherit;top=0;left=0;bottom=0;right=0;collapsible=0;dropTarget=0;fillColor=none;points=[[0,0.5],[1,0.5]];portConstraint=eastwest;fontSize=20;fontStyle=1" vertex="1" parent="GG0uQtJbo4kGQcK2Vj1j-71">
          <mxGeometry y="35" width="56" height="35" as="geometry" />
        </mxCell>
        <mxCell id="GG0uQtJbo4kGQcK2Vj1j-78" value="q2" style="shape=partialRectangle;html=1;whiteSpace=wrap;connectable=0;strokeColor=#9673a6;overflow=hidden;fillColor=#e1d5e7;top=0;left=0;bottom=0;right=0;pointerEvents=1;fontSize=20;fontStyle=1" vertex="1" parent="GG0uQtJbo4kGQcK2Vj1j-77">
          <mxGeometry width="56" height="35" as="geometry">
            <mxRectangle width="56" height="35" as="alternateBounds" />
          </mxGeometry>
        </mxCell>
        <mxCell id="GG0uQtJbo4kGQcK2Vj1j-169" style="shape=tableRow;horizontal=0;startSize=0;swimlaneHead=0;swimlaneBody=0;strokeColor=inherit;top=0;left=0;bottom=0;right=0;collapsible=0;dropTarget=0;fillColor=none;points=[[0,0.5],[1,0.5]];portConstraint=eastwest;fontSize=20;fontStyle=1" vertex="1" parent="GG0uQtJbo4kGQcK2Vj1j-71">
          <mxGeometry y="70" width="56" height="35" as="geometry" />
        </mxCell>
        <mxCell id="GG0uQtJbo4kGQcK2Vj1j-170" value="q3" style="shape=partialRectangle;html=1;whiteSpace=wrap;connectable=0;strokeColor=#9673a6;overflow=hidden;fillColor=#e1d5e7;top=0;left=0;bottom=0;right=0;pointerEvents=1;fontSize=20;fontStyle=1" vertex="1" parent="GG0uQtJbo4kGQcK2Vj1j-169">
          <mxGeometry width="56" height="35" as="geometry">
            <mxRectangle width="56" height="35" as="alternateBounds" />
          </mxGeometry>
        </mxCell>
        <mxCell id="GG0uQtJbo4kGQcK2Vj1j-171" style="shape=tableRow;horizontal=0;startSize=0;swimlaneHead=0;swimlaneBody=0;strokeColor=inherit;top=0;left=0;bottom=0;right=0;collapsible=0;dropTarget=0;fillColor=none;points=[[0,0.5],[1,0.5]];portConstraint=eastwest;fontSize=20;fontStyle=1" vertex="1" parent="GG0uQtJbo4kGQcK2Vj1j-71">
          <mxGeometry y="105" width="56" height="25" as="geometry" />
        </mxCell>
        <mxCell id="GG0uQtJbo4kGQcK2Vj1j-172" value="q4" style="shape=partialRectangle;html=1;whiteSpace=wrap;connectable=0;strokeColor=#9673a6;overflow=hidden;fillColor=#e1d5e7;top=0;left=0;bottom=0;right=0;pointerEvents=1;fontSize=20;fontStyle=1" vertex="1" parent="GG0uQtJbo4kGQcK2Vj1j-171">
          <mxGeometry width="56" height="25" as="geometry">
            <mxRectangle width="56" height="25" as="alternateBounds" />
          </mxGeometry>
        </mxCell>
        <mxCell id="GG0uQtJbo4kGQcK2Vj1j-173" style="shape=tableRow;horizontal=0;startSize=0;swimlaneHead=0;swimlaneBody=0;strokeColor=inherit;top=0;left=0;bottom=0;right=0;collapsible=0;dropTarget=0;fillColor=none;points=[[0,0.5],[1,0.5]];portConstraint=eastwest;fontSize=20;fontStyle=1" vertex="1" parent="GG0uQtJbo4kGQcK2Vj1j-71">
          <mxGeometry y="130" width="56" height="35" as="geometry" />
        </mxCell>
        <mxCell id="GG0uQtJbo4kGQcK2Vj1j-174" value="k1" style="shape=partialRectangle;html=1;whiteSpace=wrap;connectable=0;strokeColor=#82b366;overflow=hidden;fillColor=#d5e8d4;top=0;left=0;bottom=0;right=0;pointerEvents=1;fontSize=20;fontStyle=1" vertex="1" parent="GG0uQtJbo4kGQcK2Vj1j-173">
          <mxGeometry width="56" height="35" as="geometry">
            <mxRectangle width="56" height="35" as="alternateBounds" />
          </mxGeometry>
        </mxCell>
        <mxCell id="GG0uQtJbo4kGQcK2Vj1j-175" style="shape=tableRow;horizontal=0;startSize=0;swimlaneHead=0;swimlaneBody=0;strokeColor=inherit;top=0;left=0;bottom=0;right=0;collapsible=0;dropTarget=0;fillColor=none;points=[[0,0.5],[1,0.5]];portConstraint=eastwest;fontSize=20;fontStyle=1" vertex="1" parent="GG0uQtJbo4kGQcK2Vj1j-71">
          <mxGeometry y="165" width="56" height="35" as="geometry" />
        </mxCell>
        <mxCell id="GG0uQtJbo4kGQcK2Vj1j-176" value="k2" style="shape=partialRectangle;html=1;whiteSpace=wrap;connectable=0;strokeColor=#82b366;overflow=hidden;fillColor=#d5e8d4;top=0;left=0;bottom=0;right=0;pointerEvents=1;fontSize=20;fontStyle=1" vertex="1" parent="GG0uQtJbo4kGQcK2Vj1j-175">
          <mxGeometry width="56" height="35" as="geometry">
            <mxRectangle width="56" height="35" as="alternateBounds" />
          </mxGeometry>
        </mxCell>
        <mxCell id="GG0uQtJbo4kGQcK2Vj1j-177" style="shape=tableRow;horizontal=0;startSize=0;swimlaneHead=0;swimlaneBody=0;strokeColor=#6c8ebf;top=0;left=0;bottom=0;right=0;collapsible=0;dropTarget=0;fillColor=#dae8fc;points=[[0,0.5],[1,0.5]];portConstraint=eastwest;fontSize=20;fontStyle=1" vertex="1" parent="GG0uQtJbo4kGQcK2Vj1j-71">
          <mxGeometry y="200" width="56" height="35" as="geometry" />
        </mxCell>
        <mxCell id="GG0uQtJbo4kGQcK2Vj1j-178" value="v1" style="shape=partialRectangle;html=1;whiteSpace=wrap;connectable=0;strokeColor=inherit;overflow=hidden;fillColor=none;top=0;left=0;bottom=0;right=0;pointerEvents=1;fontSize=20;fontStyle=1" vertex="1" parent="GG0uQtJbo4kGQcK2Vj1j-177">
          <mxGeometry width="56" height="35" as="geometry">
            <mxRectangle width="56" height="35" as="alternateBounds" />
          </mxGeometry>
        </mxCell>
        <mxCell id="GG0uQtJbo4kGQcK2Vj1j-179" style="shape=tableRow;horizontal=0;startSize=0;swimlaneHead=0;swimlaneBody=0;strokeColor=inherit;top=0;left=0;bottom=0;right=0;collapsible=0;dropTarget=0;fillColor=none;points=[[0,0.5],[1,0.5]];portConstraint=eastwest;fontSize=20;fontStyle=1" vertex="1" parent="GG0uQtJbo4kGQcK2Vj1j-71">
          <mxGeometry y="235" width="56" height="35" as="geometry" />
        </mxCell>
        <mxCell id="GG0uQtJbo4kGQcK2Vj1j-180" value="v2" style="shape=partialRectangle;html=1;whiteSpace=wrap;connectable=0;strokeColor=#6c8ebf;overflow=hidden;fillColor=#dae8fc;top=0;left=0;bottom=0;right=0;pointerEvents=1;fontSize=20;fontStyle=1" vertex="1" parent="GG0uQtJbo4kGQcK2Vj1j-179">
          <mxGeometry width="56" height="35" as="geometry">
            <mxRectangle width="56" height="35" as="alternateBounds" />
          </mxGeometry>
        </mxCell>
        <mxCell id="GG0uQtJbo4kGQcK2Vj1j-82" style="edgeStyle=orthogonalEdgeStyle;rounded=0;orthogonalLoop=1;jettySize=auto;html=1;exitX=0;exitY=0.5;exitDx=0;exitDy=0;entryX=0.474;entryY=-0.006;entryDx=0;entryDy=0;entryPerimeter=0;" edge="1" parent="1" source="GG0uQtJbo4kGQcK2Vj1j-30" target="GG0uQtJbo4kGQcK2Vj1j-72">
          <mxGeometry relative="1" as="geometry" />
        </mxCell>
        <mxCell id="GG0uQtJbo4kGQcK2Vj1j-83" value="&lt;font style=&quot;font-size: 22px;&quot;&gt;&lt;b&gt;对最后一维reshape&lt;/b&gt;&lt;/font&gt;" style="text;html=1;align=center;verticalAlign=middle;resizable=0;points=[];autosize=1;strokeColor=none;fillColor=none;" vertex="1" parent="1">
          <mxGeometry x="675" y="880" width="220" height="40" as="geometry" />
        </mxCell>
        <mxCell id="GG0uQtJbo4kGQcK2Vj1j-84" value="" style="shape=curlyBracket;whiteSpace=wrap;html=1;rounded=1;labelPosition=left;verticalLabelPosition=middle;align=right;verticalAlign=middle;" vertex="1" parent="1">
          <mxGeometry x="555" y="945" width="20" height="265" as="geometry" />
        </mxCell>
        <mxCell id="GG0uQtJbo4kGQcK2Vj1j-102" value="&lt;font style=&quot;font-size: 22px;&quot;&gt;&lt;b&gt;展平后&lt;/b&gt;&lt;/font&gt;" style="text;html=1;align=center;verticalAlign=middle;resizable=0;points=[];autosize=1;strokeColor=none;fillColor=none;" vertex="1" parent="1">
          <mxGeometry x="790" y="1240" width="90" height="40" as="geometry" />
        </mxCell>
        <mxCell id="GG0uQtJbo4kGQcK2Vj1j-103" value="" style="shape=table;startSize=0;container=1;collapsible=0;childLayout=tableLayout;fillColor=#fff2cc;strokeColor=#d6b656;fontSize=20;fontStyle=1" vertex="1" parent="1">
          <mxGeometry x="2285" y="790" width="174" height="120" as="geometry" />
        </mxCell>
        <mxCell id="GG0uQtJbo4kGQcK2Vj1j-104" value="" style="shape=tableRow;horizontal=0;startSize=0;swimlaneHead=0;swimlaneBody=0;strokeColor=inherit;top=0;left=0;bottom=0;right=0;collapsible=0;dropTarget=0;fillColor=none;points=[[0,0.5],[1,0.5]];portConstraint=eastwest;fontSize=20;fontStyle=1" vertex="1" parent="GG0uQtJbo4kGQcK2Vj1j-103">
          <mxGeometry width="174" height="40" as="geometry" />
        </mxCell>
        <mxCell id="GG0uQtJbo4kGQcK2Vj1j-105" value="q1" style="shape=partialRectangle;html=1;whiteSpace=wrap;connectable=0;strokeColor=#666666;overflow=hidden;fillColor=#f5f5f5;top=0;left=0;bottom=0;right=0;pointerEvents=1;fontColor=#333333;fontSize=20;fontStyle=1" vertex="1" parent="GG0uQtJbo4kGQcK2Vj1j-104">
          <mxGeometry width="44" height="40" as="geometry">
            <mxRectangle width="44" height="40" as="alternateBounds" />
          </mxGeometry>
        </mxCell>
        <mxCell id="GG0uQtJbo4kGQcK2Vj1j-106" value="q2" style="shape=partialRectangle;html=1;whiteSpace=wrap;connectable=0;strokeColor=#666666;overflow=hidden;fillColor=#f5f5f5;top=0;left=0;bottom=0;right=0;pointerEvents=1;fontColor=#333333;fontSize=20;fontStyle=1" vertex="1" parent="GG0uQtJbo4kGQcK2Vj1j-104">
          <mxGeometry x="44" width="44" height="40" as="geometry">
            <mxRectangle width="44" height="40" as="alternateBounds" />
          </mxGeometry>
        </mxCell>
        <mxCell id="GG0uQtJbo4kGQcK2Vj1j-107" value="k1" style="shape=partialRectangle;html=1;whiteSpace=wrap;connectable=0;overflow=hidden;top=0;left=0;bottom=0;right=0;pointerEvents=1;fillColor=#f5f5f5;fontColor=#333333;strokeColor=#666666;fontSize=20;fontStyle=1" vertex="1" parent="GG0uQtJbo4kGQcK2Vj1j-104">
          <mxGeometry x="88" width="42" height="40" as="geometry">
            <mxRectangle width="42" height="40" as="alternateBounds" />
          </mxGeometry>
        </mxCell>
        <mxCell id="GG0uQtJbo4kGQcK2Vj1j-108" value="v1" style="shape=partialRectangle;html=1;whiteSpace=wrap;connectable=0;strokeColor=#666666;overflow=hidden;fillColor=#f5f5f5;top=0;left=0;bottom=0;right=0;pointerEvents=1;fontColor=#333333;fontSize=20;fontStyle=1" vertex="1" parent="GG0uQtJbo4kGQcK2Vj1j-104">
          <mxGeometry x="130" width="44" height="40" as="geometry">
            <mxRectangle width="44" height="40" as="alternateBounds" />
          </mxGeometry>
        </mxCell>
        <mxCell id="GG0uQtJbo4kGQcK2Vj1j-109" value="" style="shape=tableRow;horizontal=0;startSize=0;swimlaneHead=0;swimlaneBody=0;strokeColor=inherit;top=0;left=0;bottom=0;right=0;collapsible=0;dropTarget=0;fillColor=none;points=[[0,0.5],[1,0.5]];portConstraint=eastwest;fontSize=20;fontStyle=1" vertex="1" parent="GG0uQtJbo4kGQcK2Vj1j-103">
          <mxGeometry y="40" width="174" height="40" as="geometry" />
        </mxCell>
        <mxCell id="GG0uQtJbo4kGQcK2Vj1j-110" style="shape=partialRectangle;html=1;whiteSpace=wrap;connectable=0;strokeColor=inherit;overflow=hidden;fillColor=none;top=0;left=0;bottom=0;right=0;pointerEvents=1;fontSize=20;fontStyle=1" vertex="1" parent="GG0uQtJbo4kGQcK2Vj1j-109">
          <mxGeometry width="44" height="40" as="geometry">
            <mxRectangle width="44" height="40" as="alternateBounds" />
          </mxGeometry>
        </mxCell>
        <mxCell id="GG0uQtJbo4kGQcK2Vj1j-111" value="" style="shape=partialRectangle;html=1;whiteSpace=wrap;connectable=0;strokeColor=inherit;overflow=hidden;fillColor=none;top=0;left=0;bottom=0;right=0;pointerEvents=1;fontSize=20;fontStyle=1" vertex="1" parent="GG0uQtJbo4kGQcK2Vj1j-109">
          <mxGeometry x="44" width="44" height="40" as="geometry">
            <mxRectangle width="44" height="40" as="alternateBounds" />
          </mxGeometry>
        </mxCell>
        <mxCell id="GG0uQtJbo4kGQcK2Vj1j-112" value="" style="shape=partialRectangle;html=1;whiteSpace=wrap;connectable=0;strokeColor=inherit;overflow=hidden;fillColor=none;top=0;left=0;bottom=0;right=0;pointerEvents=1;fontSize=20;fontStyle=1" vertex="1" parent="GG0uQtJbo4kGQcK2Vj1j-109">
          <mxGeometry x="88" width="42" height="40" as="geometry">
            <mxRectangle width="42" height="40" as="alternateBounds" />
          </mxGeometry>
        </mxCell>
        <mxCell id="GG0uQtJbo4kGQcK2Vj1j-113" value="" style="shape=partialRectangle;html=1;whiteSpace=wrap;connectable=0;strokeColor=inherit;overflow=hidden;fillColor=none;top=0;left=0;bottom=0;right=0;pointerEvents=1;fontSize=20;fontStyle=1" vertex="1" parent="GG0uQtJbo4kGQcK2Vj1j-109">
          <mxGeometry x="130" width="44" height="40" as="geometry">
            <mxRectangle width="44" height="40" as="alternateBounds" />
          </mxGeometry>
        </mxCell>
        <mxCell id="GG0uQtJbo4kGQcK2Vj1j-114" value="" style="shape=tableRow;horizontal=0;startSize=0;swimlaneHead=0;swimlaneBody=0;strokeColor=inherit;top=0;left=0;bottom=0;right=0;collapsible=0;dropTarget=0;fillColor=none;points=[[0,0.5],[1,0.5]];portConstraint=eastwest;fontSize=20;fontStyle=1" vertex="1" parent="GG0uQtJbo4kGQcK2Vj1j-103">
          <mxGeometry y="80" width="174" height="40" as="geometry" />
        </mxCell>
        <mxCell id="GG0uQtJbo4kGQcK2Vj1j-115" style="shape=partialRectangle;html=1;whiteSpace=wrap;connectable=0;strokeColor=inherit;overflow=hidden;fillColor=none;top=0;left=0;bottom=0;right=0;pointerEvents=1;fontSize=20;fontStyle=1" vertex="1" parent="GG0uQtJbo4kGQcK2Vj1j-114">
          <mxGeometry width="44" height="40" as="geometry">
            <mxRectangle width="44" height="40" as="alternateBounds" />
          </mxGeometry>
        </mxCell>
        <mxCell id="GG0uQtJbo4kGQcK2Vj1j-116" value="" style="shape=partialRectangle;html=1;whiteSpace=wrap;connectable=0;strokeColor=inherit;overflow=hidden;fillColor=none;top=0;left=0;bottom=0;right=0;pointerEvents=1;fontSize=20;fontStyle=1" vertex="1" parent="GG0uQtJbo4kGQcK2Vj1j-114">
          <mxGeometry x="44" width="44" height="40" as="geometry">
            <mxRectangle width="44" height="40" as="alternateBounds" />
          </mxGeometry>
        </mxCell>
        <mxCell id="GG0uQtJbo4kGQcK2Vj1j-117" value="" style="shape=partialRectangle;html=1;whiteSpace=wrap;connectable=0;strokeColor=inherit;overflow=hidden;fillColor=none;top=0;left=0;bottom=0;right=0;pointerEvents=1;fontSize=20;fontStyle=1" vertex="1" parent="GG0uQtJbo4kGQcK2Vj1j-114">
          <mxGeometry x="88" width="42" height="40" as="geometry">
            <mxRectangle width="42" height="40" as="alternateBounds" />
          </mxGeometry>
        </mxCell>
        <mxCell id="GG0uQtJbo4kGQcK2Vj1j-118" value="" style="shape=partialRectangle;html=1;whiteSpace=wrap;connectable=0;strokeColor=inherit;overflow=hidden;fillColor=none;top=0;left=0;bottom=0;right=0;pointerEvents=1;fontSize=20;fontStyle=1" vertex="1" parent="GG0uQtJbo4kGQcK2Vj1j-114">
          <mxGeometry x="130" width="44" height="40" as="geometry">
            <mxRectangle width="44" height="40" as="alternateBounds" />
          </mxGeometry>
        </mxCell>
        <mxCell id="GG0uQtJbo4kGQcK2Vj1j-119" value="5" style="rounded=0;whiteSpace=wrap;html=1;fillColor=#fff2cc;strokeColor=#d6b656;fontSize=20;fontStyle=1" vertex="1" parent="1">
          <mxGeometry x="2566" y="790" width="40" height="120" as="geometry" />
        </mxCell>
        <mxCell id="GG0uQtJbo4kGQcK2Vj1j-120" value="6" style="rounded=0;whiteSpace=wrap;html=1;fillColor=#fff2cc;strokeColor=#d6b656;fontSize=20;fontStyle=1" vertex="1" parent="1">
          <mxGeometry x="2606" y="790" width="40" height="120" as="geometry" />
        </mxCell>
        <mxCell id="GG0uQtJbo4kGQcK2Vj1j-121" value="7" style="rounded=0;whiteSpace=wrap;html=1;fillColor=#fff2cc;strokeColor=#d6b656;fontSize=20;fontStyle=1" vertex="1" parent="1">
          <mxGeometry x="2646" y="790" width="40" height="120" as="geometry" />
        </mxCell>
        <mxCell id="GG0uQtJbo4kGQcK2Vj1j-122" value="9" style="rounded=0;whiteSpace=wrap;html=1;fillColor=#fff2cc;strokeColor=#d6b656;fontSize=20;fontStyle=1" vertex="1" parent="1">
          <mxGeometry x="2850" y="790" width="40" height="120" as="geometry" />
        </mxCell>
        <mxCell id="GG0uQtJbo4kGQcK2Vj1j-123" value="10" style="rounded=0;whiteSpace=wrap;html=1;fillColor=#fff2cc;strokeColor=#d6b656;fontSize=20;fontStyle=1" vertex="1" parent="1">
          <mxGeometry x="2890" y="790" width="40" height="120" as="geometry" />
        </mxCell>
        <mxCell id="GG0uQtJbo4kGQcK2Vj1j-124" value="11" style="rounded=0;whiteSpace=wrap;html=1;fillColor=#fff2cc;strokeColor=#d6b656;fontSize=20;fontStyle=1" vertex="1" parent="1">
          <mxGeometry x="2930" y="790" width="40" height="120" as="geometry" />
        </mxCell>
        <mxCell id="GG0uQtJbo4kGQcK2Vj1j-125" value="13" style="rounded=0;whiteSpace=wrap;html=1;fillColor=#fff2cc;strokeColor=#d6b656;fontSize=20;fontStyle=1" vertex="1" parent="1">
          <mxGeometry x="3145" y="785" width="40" height="120" as="geometry" />
        </mxCell>
        <mxCell id="GG0uQtJbo4kGQcK2Vj1j-126" value="14" style="rounded=0;whiteSpace=wrap;html=1;fillColor=#fff2cc;strokeColor=#d6b656;fontSize=20;fontStyle=1" vertex="1" parent="1">
          <mxGeometry x="3185" y="785" width="40" height="120" as="geometry" />
        </mxCell>
        <mxCell id="GG0uQtJbo4kGQcK2Vj1j-127" value="15" style="rounded=0;whiteSpace=wrap;html=1;fillColor=#fff2cc;strokeColor=#d6b656;fontSize=20;fontStyle=1" vertex="1" parent="1">
          <mxGeometry x="3225" y="785" width="40" height="120" as="geometry" />
        </mxCell>
        <mxCell id="GG0uQtJbo4kGQcK2Vj1j-128" value="2" style="rounded=0;whiteSpace=wrap;html=1;fillColor=#fff2cc;strokeColor=#d6b656;fontSize=20;fontStyle=1" vertex="1" parent="1">
          <mxGeometry x="1125" y="420" width="40" height="120" as="geometry" />
        </mxCell>
        <mxCell id="GG0uQtJbo4kGQcK2Vj1j-129" value="1" style="rounded=0;whiteSpace=wrap;html=1;fillColor=#fff2cc;strokeColor=#d6b656;fontSize=20;fontStyle=1" vertex="1" parent="1">
          <mxGeometry x="1085" y="420" width="40" height="120" as="geometry" />
        </mxCell>
        <mxCell id="GG0uQtJbo4kGQcK2Vj1j-130" value="15" style="rounded=0;whiteSpace=wrap;html=1;fillColor=#fff2cc;strokeColor=#d6b656;fontSize=20;fontStyle=1" vertex="1" parent="1">
          <mxGeometry x="1645" y="420" width="40" height="120" as="geometry" />
        </mxCell>
        <mxCell id="GG0uQtJbo4kGQcK2Vj1j-131" value="16" style="rounded=0;whiteSpace=wrap;html=1;fillColor=#fff2cc;strokeColor=#d6b656;fontSize=20;fontStyle=1" vertex="1" parent="1">
          <mxGeometry x="1685" y="420" width="40" height="120" as="geometry" />
        </mxCell>
        <mxCell id="GG0uQtJbo4kGQcK2Vj1j-132" value="" style="shape=curlyBracket;whiteSpace=wrap;html=1;rounded=1;labelPosition=left;verticalLabelPosition=middle;align=right;verticalAlign=middle;rotation=90;" vertex="1" parent="1">
          <mxGeometry x="1062.5" y="790" width="77.5" height="135" as="geometry" />
        </mxCell>
        <mxCell id="GG0uQtJbo4kGQcK2Vj1j-133" value="&lt;b style=&quot;font-size: 22px;&quot;&gt;num_heads&lt;/b&gt;" style="text;html=1;align=center;verticalAlign=middle;resizable=0;points=[];autosize=1;strokeColor=none;fillColor=none;" vertex="1" parent="1">
          <mxGeometry x="967" y="795" width="150" height="40" as="geometry" />
        </mxCell>
        <mxCell id="GG0uQtJbo4kGQcK2Vj1j-134" value="13" style="rounded=0;whiteSpace=wrap;html=1;fillColor=#fff2cc;strokeColor=#d6b656;fontSize=20;fontStyle=1" vertex="1" parent="1">
          <mxGeometry x="1661" y="900" width="39.99999999999999" height="160" as="geometry" />
        </mxCell>
        <mxCell id="GG0uQtJbo4kGQcK2Vj1j-135" value="14" style="rounded=0;whiteSpace=wrap;html=1;fillColor=#fff2cc;strokeColor=#d6b656;fontSize=20;fontStyle=1" vertex="1" parent="1">
          <mxGeometry x="1701" y="900" width="39.99999999999999" height="160" as="geometry" />
        </mxCell>
        <mxCell id="GG0uQtJbo4kGQcK2Vj1j-136" value="15" style="rounded=0;whiteSpace=wrap;html=1;fillColor=#fff2cc;strokeColor=#d6b656;fontSize=20;fontStyle=1" vertex="1" parent="1">
          <mxGeometry x="1741" y="900" width="39.99999999999999" height="160" as="geometry" />
        </mxCell>
        <mxCell id="GG0uQtJbo4kGQcK2Vj1j-137" value="16" style="rounded=0;whiteSpace=wrap;html=1;fillColor=#fff2cc;strokeColor=#d6b656;fontSize=20;fontStyle=1" vertex="1" parent="1">
          <mxGeometry x="1781" y="900" width="39.99999999999999" height="160" as="geometry" />
        </mxCell>
        <mxCell id="GG0uQtJbo4kGQcK2Vj1j-138" value="3" style="rounded=0;whiteSpace=wrap;html=1;fillColor=#fff2cc;strokeColor=#d6b656;fontSize=20;fontStyle=1" vertex="1" parent="1">
          <mxGeometry x="2565" y="415" width="40" height="120" as="geometry" />
        </mxCell>
        <mxCell id="GG0uQtJbo4kGQcK2Vj1j-139" value="4" style="rounded=0;whiteSpace=wrap;html=1;fillColor=#fff2cc;strokeColor=#d6b656;fontSize=20;fontStyle=1" vertex="1" parent="1">
          <mxGeometry x="2605" y="415" width="40" height="120" as="geometry" />
        </mxCell>
        <mxCell id="GG0uQtJbo4kGQcK2Vj1j-140" value="5" style="rounded=0;whiteSpace=wrap;html=1;fillColor=#fff2cc;strokeColor=#d6b656;fontSize=20;fontStyle=1" vertex="1" parent="1">
          <mxGeometry x="2645" y="415" width="40" height="120" as="geometry" />
        </mxCell>
        <mxCell id="GG0uQtJbo4kGQcK2Vj1j-141" value="6" style="rounded=0;whiteSpace=wrap;html=1;fillColor=#fff2cc;strokeColor=#d6b656;fontSize=20;fontStyle=1" vertex="1" parent="1">
          <mxGeometry x="2685" y="415" width="40" height="120" as="geometry" />
        </mxCell>
        <mxCell id="GG0uQtJbo4kGQcK2Vj1j-142" value="7" style="rounded=0;whiteSpace=wrap;html=1;fillColor=#fff2cc;strokeColor=#d6b656;fontSize=20;fontStyle=1" vertex="1" parent="1">
          <mxGeometry x="2725" y="415" width="40" height="120" as="geometry" />
        </mxCell>
        <mxCell id="GG0uQtJbo4kGQcK2Vj1j-143" value="8" style="rounded=0;whiteSpace=wrap;html=1;fillColor=#fff2cc;strokeColor=#d6b656;fontSize=20;fontStyle=1" vertex="1" parent="1">
          <mxGeometry x="2765" y="415" width="40" height="120" as="geometry" />
        </mxCell>
        <mxCell id="GG0uQtJbo4kGQcK2Vj1j-144" value="9" style="rounded=0;whiteSpace=wrap;html=1;fillColor=#fff2cc;strokeColor=#d6b656;fontSize=20;fontStyle=1" vertex="1" parent="1">
          <mxGeometry x="2805" y="415" width="40" height="120" as="geometry" />
        </mxCell>
        <mxCell id="GG0uQtJbo4kGQcK2Vj1j-145" value="10" style="rounded=0;whiteSpace=wrap;html=1;fillColor=#fff2cc;strokeColor=#d6b656;fontSize=20;fontStyle=1" vertex="1" parent="1">
          <mxGeometry x="2845" y="415" width="40" height="120" as="geometry" />
        </mxCell>
        <mxCell id="GG0uQtJbo4kGQcK2Vj1j-146" value="11" style="rounded=0;whiteSpace=wrap;html=1;fillColor=#fff2cc;strokeColor=#d6b656;fontSize=20;fontStyle=1" vertex="1" parent="1">
          <mxGeometry x="2885" y="415" width="40" height="120" as="geometry" />
        </mxCell>
        <mxCell id="GG0uQtJbo4kGQcK2Vj1j-147" value="12" style="rounded=0;whiteSpace=wrap;html=1;fillColor=#fff2cc;strokeColor=#d6b656;fontSize=20;fontStyle=1" vertex="1" parent="1">
          <mxGeometry x="2925" y="415" width="40" height="120" as="geometry" />
        </mxCell>
        <mxCell id="GG0uQtJbo4kGQcK2Vj1j-148" value="13" style="rounded=0;whiteSpace=wrap;html=1;fillColor=#fff2cc;strokeColor=#d6b656;fontSize=20;fontStyle=1" vertex="1" parent="1">
          <mxGeometry x="2965" y="415" width="40" height="120" as="geometry" />
        </mxCell>
        <mxCell id="GG0uQtJbo4kGQcK2Vj1j-149" value="14" style="rounded=0;whiteSpace=wrap;html=1;fillColor=#fff2cc;strokeColor=#d6b656;fontSize=20;fontStyle=1" vertex="1" parent="1">
          <mxGeometry x="3005" y="415" width="40" height="120" as="geometry" />
        </mxCell>
        <mxCell id="GG0uQtJbo4kGQcK2Vj1j-150" value="2" style="rounded=0;whiteSpace=wrap;html=1;fillColor=#fff2cc;strokeColor=#d6b656;fontSize=20;fontStyle=1" vertex="1" parent="1">
          <mxGeometry x="2525" y="415" width="40" height="120" as="geometry" />
        </mxCell>
        <mxCell id="GG0uQtJbo4kGQcK2Vj1j-151" value="1" style="rounded=0;whiteSpace=wrap;html=1;fillColor=#fff2cc;strokeColor=#d6b656;fontSize=20;fontStyle=1" vertex="1" parent="1">
          <mxGeometry x="2485" y="415" width="40" height="120" as="geometry" />
        </mxCell>
        <mxCell id="GG0uQtJbo4kGQcK2Vj1j-152" value="15" style="rounded=0;whiteSpace=wrap;html=1;fillColor=#fff2cc;strokeColor=#d6b656;fontSize=20;fontStyle=1" vertex="1" parent="1">
          <mxGeometry x="3045" y="415" width="40" height="120" as="geometry" />
        </mxCell>
        <mxCell id="GG0uQtJbo4kGQcK2Vj1j-153" value="16" style="rounded=0;whiteSpace=wrap;html=1;fillColor=#fff2cc;strokeColor=#d6b656;fontSize=20;fontStyle=1" vertex="1" parent="1">
          <mxGeometry x="3085" y="415" width="40" height="120" as="geometry" />
        </mxCell>
        <mxCell id="GG0uQtJbo4kGQcK2Vj1j-154" value="16" style="rounded=0;whiteSpace=wrap;html=1;fillColor=#fff2cc;strokeColor=#d6b656;fontSize=20;fontStyle=1" vertex="1" parent="1">
          <mxGeometry x="3265" y="785" width="40" height="120" as="geometry" />
        </mxCell>
        <mxCell id="GG0uQtJbo4kGQcK2Vj1j-155" value="12" style="rounded=0;whiteSpace=wrap;html=1;fillColor=#fff2cc;strokeColor=#d6b656;fontSize=20;fontStyle=1" vertex="1" parent="1">
          <mxGeometry x="2970" y="790" width="40" height="120" as="geometry" />
        </mxCell>
        <mxCell id="GG0uQtJbo4kGQcK2Vj1j-156" value="8" style="rounded=0;whiteSpace=wrap;html=1;fillColor=#fff2cc;strokeColor=#d6b656;fontSize=20;fontStyle=1" vertex="1" parent="1">
          <mxGeometry x="2685" y="790" width="40" height="120" as="geometry" />
        </mxCell>
        <mxCell id="GG0uQtJbo4kGQcK2Vj1j-157" style="edgeStyle=orthogonalEdgeStyle;rounded=0;orthogonalLoop=1;jettySize=auto;html=1;exitX=0.5;exitY=1;exitDx=0;exitDy=0;entryX=0.164;entryY=0.013;entryDx=0;entryDy=0;entryPerimeter=0;" edge="1" parent="1" source="GG0uQtJbo4kGQcK2Vj1j-151" target="GG0uQtJbo4kGQcK2Vj1j-103">
          <mxGeometry relative="1" as="geometry" />
        </mxCell>
        <mxCell id="GG0uQtJbo4kGQcK2Vj1j-158" style="edgeStyle=orthogonalEdgeStyle;rounded=0;orthogonalLoop=1;jettySize=auto;html=1;exitX=0.5;exitY=1;exitDx=0;exitDy=0;entryX=0.386;entryY=0.025;entryDx=0;entryDy=0;entryPerimeter=0;" edge="1" parent="1" source="GG0uQtJbo4kGQcK2Vj1j-150" target="GG0uQtJbo4kGQcK2Vj1j-103">
          <mxGeometry relative="1" as="geometry" />
        </mxCell>
        <mxCell id="GG0uQtJbo4kGQcK2Vj1j-159" style="edgeStyle=orthogonalEdgeStyle;rounded=0;orthogonalLoop=1;jettySize=auto;html=1;exitX=0.5;exitY=1;exitDx=0;exitDy=0;entryX=0.665;entryY=0.001;entryDx=0;entryDy=0;entryPerimeter=0;" edge="1" parent="1" source="GG0uQtJbo4kGQcK2Vj1j-138" target="GG0uQtJbo4kGQcK2Vj1j-103">
          <mxGeometry relative="1" as="geometry" />
        </mxCell>
        <mxCell id="GG0uQtJbo4kGQcK2Vj1j-160" style="edgeStyle=orthogonalEdgeStyle;rounded=0;orthogonalLoop=1;jettySize=auto;html=1;exitX=0.5;exitY=1;exitDx=0;exitDy=0;entryX=0.878;entryY=-0.035;entryDx=0;entryDy=0;entryPerimeter=0;" edge="1" parent="1" source="GG0uQtJbo4kGQcK2Vj1j-139" target="GG0uQtJbo4kGQcK2Vj1j-103">
          <mxGeometry relative="1" as="geometry" />
        </mxCell>
        <mxCell id="GG0uQtJbo4kGQcK2Vj1j-165" value="" style="shape=curlyBracket;whiteSpace=wrap;html=1;rounded=1;labelPosition=left;verticalLabelPosition=middle;align=right;verticalAlign=middle;rotation=90;" vertex="1" parent="1">
          <mxGeometry x="1156" y="824" width="89.5" height="55" as="geometry" />
        </mxCell>
        <mxCell id="GG0uQtJbo4kGQcK2Vj1j-166" value="&lt;b style=&quot;font-size: 22px;&quot;&gt;num_kv_heads&lt;/b&gt;" style="text;html=1;align=center;verticalAlign=middle;resizable=0;points=[];autosize=1;strokeColor=none;fillColor=none;" vertex="1" parent="1">
          <mxGeometry x="1105" y="770" width="180" height="40" as="geometry" />
        </mxCell>
        <mxCell id="GG0uQtJbo4kGQcK2Vj1j-167" value="" style="shape=curlyBracket;whiteSpace=wrap;html=1;rounded=1;labelPosition=left;verticalLabelPosition=middle;align=right;verticalAlign=middle;rotation=90;" vertex="1" parent="1">
          <mxGeometry x="1226.25" y="835" width="77.5" height="55" as="geometry" />
        </mxCell>
        <mxCell id="GG0uQtJbo4kGQcK2Vj1j-168" value="&lt;b style=&quot;font-size: 22px;&quot;&gt;num_kv_heads&lt;/b&gt;" style="text;html=1;align=center;verticalAlign=middle;resizable=0;points=[];autosize=1;strokeColor=none;fillColor=none;" vertex="1" parent="1">
          <mxGeometry x="1200" y="800" width="180" height="40" as="geometry" />
        </mxCell>
        <mxCell id="GG0uQtJbo4kGQcK2Vj1j-181" value="&lt;b style=&quot;forced-color-adjust: none; color: rgb(0, 0, 0); font-family: Helvetica; font-size: 22px; font-style: normal; font-variant-ligatures: normal; font-variant-caps: normal; letter-spacing: normal; orphans: 2; text-align: center; text-indent: 0px; text-transform: none; widows: 2; word-spacing: 0px; -webkit-text-stroke-width: 0px; white-space: nowrap; background-color: rgb(236, 236, 236); text-decoration-thickness: initial; text-decoration-style: initial; text-decoration-color: initial;&quot;&gt;num_head+k_v_nums*2&lt;/b&gt;" style="text;whiteSpace=wrap;html=1;" vertex="1" parent="1">
          <mxGeometry x="290" y="1060" width="260" height="50" as="geometry" />
        </mxCell>
        <mxCell id="GG0uQtJbo4kGQcK2Vj1j-182" value="&lt;b style=&quot;forced-color-adjust: none; color: rgb(0, 0, 0); font-family: Helvetica; font-size: 22px; font-style: normal; font-variant-ligatures: normal; font-variant-caps: normal; letter-spacing: normal; orphans: 2; text-align: center; text-indent: 0px; text-transform: none; widows: 2; word-spacing: 0px; -webkit-text-stroke-width: 0px; white-space: nowrap; background-color: rgb(236, 236, 236); text-decoration-thickness: initial; text-decoration-style: initial; text-decoration-color: initial;&quot;&gt;head_dim&lt;/b&gt;" style="text;whiteSpace=wrap;html=1;" vertex="1" parent="1">
          <mxGeometry x="628" y="1230" width="110" height="50" as="geometry" />
        </mxCell>
        <mxCell id="GG0uQtJbo4kGQcK2Vj1j-184" value="" style="endArrow=none;dashed=1;html=1;dashPattern=1 3;strokeWidth=4;rounded=0;strokeColor=#FF0000;" edge="1" parent="1">
          <mxGeometry width="50" height="50" relative="1" as="geometry">
            <mxPoint x="580" y="1076.59" as="sourcePoint" />
            <mxPoint x="810" y="1076.59" as="targetPoint" />
          </mxGeometry>
        </mxCell>
        <mxCell id="GG0uQtJbo4kGQcK2Vj1j-185" value="" style="endArrow=none;dashed=1;html=1;dashPattern=1 3;strokeWidth=4;rounded=0;strokeColor=#FF0000;" edge="1" parent="1">
          <mxGeometry width="50" height="50" relative="1" as="geometry">
            <mxPoint x="575" y="1150" as="sourcePoint" />
            <mxPoint x="805" y="1150" as="targetPoint" />
          </mxGeometry>
        </mxCell>
        <mxCell id="GG0uQtJbo4kGQcK2Vj1j-187" value="&lt;font style=&quot;font-size: 22px;&quot;&gt;&lt;b&gt;num_head=2 ;&amp;nbsp;&lt;/b&gt;&lt;b&gt;num_kv_heads&lt;/b&gt;&lt;b&gt;=1&lt;/b&gt;&lt;/font&gt;" style="text;html=1;align=center;verticalAlign=middle;resizable=0;points=[];autosize=1;strokeColor=none;fillColor=none;" vertex="1" parent="1">
          <mxGeometry x="2240" y="990" width="360" height="40" as="geometry" />
        </mxCell>
        <mxCell id="GG0uQtJbo4kGQcK2Vj1j-191" value="" style="endArrow=classic;html=1;rounded=0;exitX=0.059;exitY=1.062;exitDx=0;exitDy=0;exitPerimeter=0;entryX=0.169;entryY=1.105;entryDx=0;entryDy=0;entryPerimeter=0;" edge="1" parent="1">
          <mxGeometry width="50" height="50" relative="1" as="geometry">
            <mxPoint x="1125" y="1059" as="sourcePoint" />
            <mxPoint x="2388" y="910" as="targetPoint" />
            <Array as="points">
              <mxPoint x="1125" y="1356" />
              <mxPoint x="2388" y="1356" />
            </Array>
          </mxGeometry>
        </mxCell>
        <mxCell id="GG0uQtJbo4kGQcK2Vj1j-192" value="" style="endArrow=classic;html=1;rounded=0;exitX=0.059;exitY=1.062;exitDx=0;exitDy=0;exitPerimeter=0;" edge="1" parent="1">
          <mxGeometry width="50" height="50" relative="1" as="geometry">
            <mxPoint x="1156" y="1059" as="sourcePoint" />
            <mxPoint x="2438" y="920" as="targetPoint" />
            <Array as="points">
              <mxPoint x="1156" y="1356" />
              <mxPoint x="2440" y="1356" />
            </Array>
          </mxGeometry>
        </mxCell>
        <mxCell id="GG0uQtJbo4kGQcK2Vj1j-193" value="" style="shape=cross;whiteSpace=wrap;html=1;rotation=45;size=0.19606142569262489;fillColor=#e51400;fontColor=#ffffff;strokeColor=#B20000;" vertex="1" parent="1">
          <mxGeometry x="1857" y="1280" width="80" height="80" as="geometry" />
        </mxCell>
      </root>
    </mxGraphModel>
  </diagram>
</mxfile>
